#!OML:ASF C:\ViconDB\ViconDB\414\Spring2016\042216\male.ASF
:FULLY-SPECIFIED
:DEGREES
880
root 37.1007 17.4145 3.93981 -537.182 57.5353 -176.191
lowerback -0.836046 -2.39627 3.65037
upperback 0.0589976 -3.22597 -1.20508
thorax 0.257885 -1.60778 -3.30805
lowerneck 4.06762 14.0734 -0.902833
upperneck -0.840777 18.786 -6.54114
head -0.34481 9.51307 -2.08624
rclavicle -2.0481e-014 5.1684e-015
rhumerus -34.545 -5.4496 -89.8072
rradius 26.7452
rwrist 32.0599
rhand 9.99107 -22.4986
rfingers 7.12502
rthumb 35.1179 -49.027
lclavicle -2.0481e-014 5.1684e-015
lhumerus -31.7967 5.02741 91.9414
lradius 32.8793
lwrist -10.0185
lhand -10.7895 15.897
lfingers 7.12502
lthumb 15.2233 45.3169
rfemur -10.2224 5.32723 22.1219
rtibia 37.7834
rfoot -22.7758 -7.94477
rtoes -21.6257
lfemur -13.387 -1.0031 -20.4925
ltibia 31.005
lfoot -27.7924 -1.77332
ltoes -4.84521
881
root 37.1214 17.4249 3.93732 -536.909 56.8934 -175.952
lowerback -0.934397 -2.4226 3.85276
upperback 0.0381429 -3.26679 -1.18706
thorax 0.277901 -1.62791 -3.40697
lowerneck 3.89183 13.9654 -0.996088
upperneck -0.654789 18.6527 -6.39367
head -0.284676 9.43831 -2.00519
rclavicle 6.30396e-014 -3.97569e-016
rhumerus -34.5748 -5.31513 -90.0205
rradius 27.2212
rwrist 31.2731
rhand 10.1232 -22.787
rfingers 7.12502
rthumb 35.2432 -49.286
lclavicle 6.30396e-014 -3.97569e-016
lhumerus -31.8143 5.23716 91.7571
lradius 32.6234
lwrist -10.3699
lhand -10.7436 15.9893
lfingers 7.12502
lthumb 15.2675 45.4058
rfemur -10.3778 6.35821 21.939
rtibia 37.2445
rfoot -22.9127 -8.76939
rtoes -21.2104
lfemur -13.318 -1.26184 -20.3003
ltibia 30.7319
lfoot -27.6891 -2.00247
ltoes -5.41386
882
root 37.1471 17.4435 3.93494 -537.155 56.2441 -176.16
lowerback -0.919231 -2.45849 3.69098
upperback 0.0643179 -3.31256 -1.18605
thorax 0.301495 -1.65006 -3.3155
lowerneck 3.68825 13.8387 -1.14807
upperneck -0.500261 18.4918 -6.26907
head -0.233683 9.35094 -1.92275
rclavicle 1.1468e-013 1.19271e-014
rhumerus -34.5738 -5.21488 -90.1415
rradius 27.5986
rwrist 30.9726
rhand 10.1915 -22.8603
rfingers 7.12502
rthumb 35.308 -49.3439
lclavicle 1.1468e-013 1.19271e-014
lhumerus -31.8519 5.77465 91.535
lradius 32.3918
lwrist -10.8289
lhand -10.6332 16.1358
lfingers 7.12502
lthumb 15.3738 45.5442
rfemur -10.3854 7.44119 21.5043
rtibia 36.6405
rfoot -23.0935 -9.46463
rtoes -20.2934
lfemur -13.0816 -1.57274 -20.3544
ltibia 30.4412
lfoot -27.3522 -2.52388
ltoes -4.89503
883
root 37.1726 17.4428 3.93705 -537.348 55.6696 -176.365
lowerback -0.98152 -2.45005 3.57355
upperback 0.0993257 -3.30208 -1.23141
thorax 0.377153 -1.64277 -3.30055
lowerneck 3.45357 13.694 -1.27536
upperneck -0.346997 18.3073 -6.11462
head -0.179148 9.25033 -1.83283
rclavicle -4.07384e-014 -1.23246e-014
rhumerus -34.5081 -5.39023 -90.2269
rradius 27.9764
rwrist 30.8635
rhand 10.4367 -22.8632
rfingers 7.12502
rthumb 35.5404 -49.2913
lclavicle -4.07384e-014 -1.23246e-014
lhumerus -31.8615 6.16401 91.2437
lradius 32.1143
lwrist -11.4117
lhand -10.5524 16.0746
lfingers 7.12502
lthumb 15.4517 45.477
rfemur -10.3586 8.43329 21.119
rtibia 35.9998
rfoot -23.1843 -10.1355
rtoes -20.3567
lfemur -12.9433 -1.71272 -20.4174
ltibia 30.2226
lfoot -27.1687 -2.92148
ltoes -3.78598
884
root 37.1998 17.4502 3.93742 -537.845 55.1382 -176.824
lowerback -0.935654 -2.40071 3.29245
upperback 0.135683 -3.23106 -1.28
thorax 0.407357 -1.60646 -3.19184
lowerneck 3.39553 13.5263 -1.36414
upperneck -0.318528 18.086 -6.12306
head -0.174181 9.13966 -1.81712
rclavicle -8.55395e-015 -7.15625e-015
rhumerus -34.5544 -5.08654 -90.4078
rradius 28.4093
rwrist 30.4004
rhand 10.1646 -22.9426
rfingers 7.12502
rthumb 35.2825 -49.4323
lclavicle -8.55395e-015 -7.15625e-015
lhumerus -31.9482 6.49974 91.0358
lradius 31.9571
lwrist -11.9633
lhand -10.3408 16.0324
lfingers 7.12502
lthumb 15.6554 45.419
rfemur -10.3283 9.73832 20.5454
rtibia 35.3431
rfoot -23.2961 -10.5375
rtoes -19.5154
lfemur -12.7082 -1.64144 -20.6552
ltibia 30.0099
lfoot -27.0269 -3.25466
ltoes -3.45732
885
root 37.2259 17.4514 3.93834 -537.528 54.5493 -176.61
lowerback -1.12619 -2.35589 3.47243
upperback 0.0976695 -3.17961 -1.25405
thorax 0.470889 -1.57966 -3.27365
lowerneck 3.23786 13.3656 -1.44211
upperneck -0.20614 17.8808 -6.0587
head -0.131992 9.03229 -1.76912
rclavicle -4.928e-014 -7.95139e-016
rhumerus -34.5312 -5.14215 -90.4749
rradius 28.6362
rwrist 30.5107
rhand 9.99379 -22.7499
rfingers 7.12502
rthumb 35.1204 -49.2778
lclavicle -4.928e-014 -7.95139e-016
lhumerus -31.994 6.868 90.8133
lradius 31.7767
lwrist -12.284
lhand -10.2617 16.088
lfingers 7.12502
lthumb 15.7316 45.4686
rfemur -10.5587 10.7821 20.344
rtibia 34.7057
rfoot -23.2404 -10.7527
rtoes -19.573
lfemur -12.7811 -1.1589 -20.4804
ltibia 29.8925
lfoot -27.0082 -4.07823
ltoes -3.86631
886
root 37.2532 17.4602 3.94581 -537.524 53.9412 -176.626
lowerback -1.05723 -2.40291 3.3346
upperback 0.0190768 -3.23704 -1.27336
thorax 0.353308 -1.6121 -3.21104
lowerneck 2.93371 13.3066 -1.27795
upperneck 0.246599 17.8449 -5.9335
head 0.0605286 8.99821 -1.70752
rclavicle -1.00902e-013 -1.98785e-015
rhumerus -34.5951 -4.75164 -90.8776
rradius 29.0196
rwrist 29.9497
rhand 9.76131 -22.9807
rfingers 7.12502
rthumb 34.8999 -49.5601
lclavicle -1.00902e-013 -1.98785e-015
lhumerus -32.22 6.95616 90.5256
lradius 31.6423
lwrist -11.9793
lhand -10.4627 15.8682
lfingers 7.12502
lthumb 15.5381 45.2639
rfemur -10.6557 11.8864 20.076
rtibia 34.0807
rfoot -23.2968 -10.6629
rtoes -19.1935
lfemur -12.8076 -0.939765 -20.3579
ltibia 29.7939
lfoot -26.8775 -4.92528
ltoes -3.65883
887
root 37.279 17.4542 3.95183 -537.462 53.386 -176.568
lowerback -1.1087 -2.37799 3.28737
upperback 0.010487 -3.20529 -1.19979
thorax 0.382674 -1.59589 -3.11107
lowerneck 2.96937 13.1311 -1.42525
upperneck 0.133086 17.6014 -5.99792
head 0.0058709 8.88173 -1.71533
rclavicle -4.93234e-014 -3.97569e-016
rhumerus -34.4722 -4.69591 -90.904
rradius 29.174
rwrist 29.9165
rhand 9.71773 -22.8803
rfingers 7.12502
rthumb 34.8586 -49.4693
lclavicle -4.93234e-014 -3.97569e-016
lhumerus -32.3473 6.88707 90.5927
lradius 31.8313
lwrist -11.4081
lhand -10.6802 16.6095
lfingers 7.12502
lthumb 15.3286 46.0214
rfemur -10.7401 12.8628 19.8616
rtibia 33.4548
rfoot -23.3282 -10.1518
rtoes -19.1127
lfemur -12.8305 -0.351385 -20.2481
ltibia 29.8001
lfoot -26.9558 -5.768
ltoes -4.34124
888
root 37.3028 17.4477 3.95959 -537.496 52.8727 -176.639
lowerback -1.12763 -2.37914 3.11881
upperback -0.0234984 -3.20497 -1.15585
thorax 0.370156 -1.59665 -2.97155
lowerneck 3.04259 12.987 -1.45867
upperneck 0.0255425 17.4034 -6.10781
head -0.0377631 8.7887 -1.75431
rclavicle -6.14058e-014 3.97569e-015
rhumerus -34.368 -4.24665 -91.1614
rradius 29.4003
rwrist 29.3227
rhand 9.55321 -22.9087
rfingers 7.12502
rthumb 34.7025 -49.5338
lclavicle -6.14058e-014 3.97569e-015
lhumerus -32.5711 8.13038 90.0364
lradius 31.9456
lwrist -12.1916
lhand -10.3828 16.2479
lfingers 7.12502
lthumb 15.615 45.6376
rfemur -10.8465 13.6671 19.568
rtibia 32.8479
rfoot -23.3816 -9.419
rtoes -19.0351
lfemur -12.9297 0.367821 -20.1942
ltibia 29.8612
lfoot -26.9089 -6.79636
ltoes -4.93403
889
root 37.3288 17.4492 3.96537 -537.541 52.3604 -176.673
lowerback -1.12682 -2.3249 3.16028
upperback -0.0328154 -3.13268 -1.19637
thorax 0.361021 -1.56067 -3.03565
lowerneck 2.97462 12.8352 -1.58402
upperneck 0.0435469 17.1977 -5.99935
head -0.0472556 8.68385 -1.69933
rclavicle 9.79449e-014 4.77083e-015
rhumerus -34.2449 -4.13056 -91.3572
rradius 29.5786
rwrist 29.2269
rhand 9.34452 -23.0311
rfingers 7.12502
rthumb 34.5044 -49.7015
lclavicle 9.79449e-014 4.77083e-015
lhumerus -32.778 8.55389 89.7217
lradius 32.161
lwrist -12.1511
lhand -10.0726 16.428
lfingers 7.12502
lthumb 15.9137 45.7941
rfemur -10.873 14.3435 19.3269
rtibia 32.3114
rfoot -23.2205 -8.56682
rtoes -19.0574
lfemur -12.9725 0.789322 -20.0924
ltibia 29.9163
lfoot -26.9602 -7.58798
ltoes -4.55549
890
root 37.3563 17.442 3.97445 -537.537 51.9105 -176.638
lowerback -1.14197 -2.31617 3.06397
upperback -0.0456274 -3.12018 -1.16982
thorax 0.363919 -1.55464 -2.95476
lowerneck 3.0145 12.7521 -1.54384
upperneck 0.0161534 17.0869 -6.04382
head -0.0578906 8.63065 -1.72241
rclavicle -3.89307e-014 -3.57812e-015
rhumerus -34.0954 -3.83672 -91.597
rradius 29.7296
rwrist 28.9277
rhand 9.36618 -23.1938
rfingers 7.12502
rthumb 34.5249 -49.8594
lclavicle -3.89307e-014 -3.57812e-015
lhumerus -32.8597 8.93191 89.3781
lradius 32.0491
lwrist -12.146
lhand -10.0592 16.3077
lfingers 7.12502
lthumb 15.9267 45.6728
rfemur -10.8818 14.9196 19.1635
rtibia 31.79
rfoot -23.0883 -7.4483
rtoes -19.0475
lfemur -13.0561 1.65557 -19.9289
ltibia 30.0481
lfoot -27.0637 -8.71421
ltoes -4.76904
891
root 37.3814 17.4397 3.97889 -537.792 51.4876 -176.873
lowerback -1.18835 -2.25588 2.94926
upperback -0.0031236 -3.03926 -1.22113
thorax 0.442633 -1.51221 -2.94605
lowerneck 3.00633 12.6463 -1.59319
upperneck -0.00696956 16.9437 -6.04088
head -0.0720132 8.56007 -1.71527
rclavicle 5.77904e-014 -3.97569e-015
rhumerus -33.8435 -3.67187 -91.7205
rradius 29.7944
rwrist 29.1173
rhand 9.3942 -23.106
rfingers 7.12502
rthumb 34.5515 -49.7656
lclavicle 5.77904e-014 -3.97569e-015
lhumerus -32.9374 9.25363 89.0907
lradius 31.9863
lwrist -12.3135
lhand -10.0691 16.2512
lfingers 7.12502
lthumb 15.9171 45.6171
rfemur -10.7561 15.3695 18.7813
rtibia 31.2956
rfoot -22.982 -6.0868
rtoes -18.2489
lfemur -13.0427 2.17931 -19.9818
ltibia 30.187
lfoot -27.2393 -9.45516
ltoes -5.13153
892
root 37.4095 17.4298 3.98541 -537.824 51.1073 -176.833
lowerback -1.63464 -2.06047 3.26785
upperback 0.316512 -2.79762 -1.40133
thorax 1.01436 -1.3742 -3.33527
lowerneck 2.69823 12.4173 -1.66253
upperneck -0.134291 16.629 -5.93592
head -0.0850356 8.39775 -1.65743
rclavicle -5.03795e-015 4.77083e-015
rhumerus -33.1343 -3.99064 -91.9311
rradius 29.7874
rwrist 29.1995
rhand 9.47617 -23.1843
rfingers 7.12502
rthumb 34.6293 -49.8261
lclavicle -5.03795e-015 4.77083e-015
lhumerus -32.5684 8.40016 89.145
lradius 32.0159
lwrist -11.484
lhand -10.3755 16.5293
lfingers 7.12502
lthumb 15.622 45.9185
rfemur -10.623 15.5754 18.6987
rtibia 30.8344
rfoot -22.527 -5.21127
rtoes -18.9625
lfemur -13.0793 3.00409 -19.8093
ltibia 30.3832
lfoot -27.4692 -10.4699
ltoes -5.68812
893
root 37.4327 17.424 3.98602 -537.971 50.7563 -176.934
lowerback -1.68925 -1.98495 3.40924
upperback 0.331676 -2.69986 -1.51427
thorax 1.05667 -1.32284 -3.53207
lowerneck 2.76795 12.3044 -1.60283
upperneck -0.169223 16.4759 -5.95254
head -0.104996 8.3234 -1.6776
rclavicle -4.83047e-014 0
rhumerus -32.9301 -3.85612 -92.1686
rradius 29.851
rwrist 29.2296
rhand 9.28342 -23.2059
rfingers 7.12502
rthumb 34.4464 -49.8895
lclavicle -4.83047e-014 0
lhumerus -32.7182 8.21574 88.9225
lradius 32.004
lwrist -11.1784
lhand -10.3859 16.5141
lfingers 7.12502
lthumb 15.612 45.9041
rfemur -10.4223 15.7427 18.5231
rtibia 30.4119
rfoot -22.2026 -4.46735
rtoes -18.7041
lfemur -13.0844 3.74044 -19.7312
ltibia 30.569
lfoot -27.8132 -11.3703
ltoes -6.52749
